# xmcd CD database file
#
# Track frame offsets:
#	150
#	11867
#	25862
#	41407
#	57290
#	69337
#	83497
#	101107
#	115635
#	132337
#	147817
#	164245
#	177312
#	193372
#
# Disc length: 2812 seconds
#
# Revision: 0
# Processed by: cddbd v1.5.1PL2 Copyright (c) Steve Scherf et al.
# Submitted via: CDex 1.50beta10
#
DISCID=c30afa0e
DTITLE=Adalberto e Adriano - Sertanejos Como Nunca
DYEAR=2003
DGENRE=Country
TTITLE0=Comendo Poeira
TTITLE1=Gato e Sapato
TTITLE2=Erros e Acertos
TTITLE3=O Tempo
TTITLE4=A Cobra Vai Fumar
TTITLE5=Folha Seca
TTITLE6=Mulher de Bordel
TTITLE7=Pedindo Perdão
TTITLE8=Me Deixe Só
TTITLE9=Tentativas e Frustrações
TTITLE10=Vou Cuidar Melhor de Mim
TTITLE11=Tempestade em Copo D'Água
TTITLE12=De Tanto Querer
TTITLE13=Onde Anda Você?
EXTD=YEAR: 2003
EXTT0=
EXTT1=
EXTT2=
EXTT3=
EXTT4=
EXTT5=
EXTT6=
EXTT7=
EXTT8=
EXTT9=
EXTT10=
EXTT11=
EXTT12=
EXTT13=
PLAYORDER=
